<?xml version="1.0" standalone="no"?>
<!DOCTYPE svg PUBLIC "-//W3C//DTD SVG 20010904//EN"
 "http://www.w3.org/TR/2001/REC-SVG-20010904/DTD/svg10.dtd">
<svg version="1.0" xmlns="http://www.w3.org/2000/svg"
 width="1798.000000pt" height="875.000000pt" viewBox="0 0 1798.000000 875.000000"
 preserveAspectRatio="xMidYMid meet">

<g transform="translate(0.000000,875.000000) scale(0.100000,-0.100000)"
fill="#000000" stroke="none">
<path d="M0 4375 l0 -4375 8990 0 8990 0 0 4375 0 4375 -8990 0 -8990 0 0
-4375z m5765 2761 c381 -60 747 -203 1067 -418 284 -190 563 -478 740 -765
140 -226 270 -531 322 -757 19 -82 20 -97 1 -72 -10 13 -32 21 -76 25 l-61 6
-34 113 c-88 290 -221 555 -397 791 -86 117 -332 365 -445 450 -356 269 -769
437 -1204 491 -63 8 -179 11 -330 7 -193 -4 -258 -9 -380 -31 -684 -122 -1298
-533 -1652 -1105 -118 -191 -222 -428 -281 -640 -52 -186 -75 -362 -75 -567 0
-184 13 -313 51 -498 28 -139 28 -140 8 -164 -23 -30 -59 -107 -60 -131 -1
-31 -39 68 -69 182 -71 279 -94 647 -56 902 107 700 450 1266 1031 1700 343
256 793 432 1252 490 139 18 508 13 648 -9z m-133 -281 c687 -73 1317 -463
1681 -1043 112 -179 246 -487 273 -627 5 -31 4 -35 -14 -35 -17 0 -27 21 -63
132 -129 393 -388 774 -693 1020 -421 339 -892 508 -1418 508 -214 0 -327 -10
-486 -46 -946 -212 -1644 -987 -1733 -1924 -13 -138 -7 -386 12 -517 11 -72
10 -83 -5 -98 -15 -15 -17 -14 -26 11 -39 101 -51 463 -24 676 152 1199 1275
2073 2496 1943z m343 -794 c221 -62 432 -196 550 -353 52 -69 119 -202 112
-222 -5 -13 -112 -56 -139 -56 -9 0 -36 36 -62 80 -110 190 -313 335 -554 396
-136 34 -239 40 -341 20 -46 -9 -84 -16 -86 -14 -1 2 -14 29 -28 61 l-26 57
27 14 c15 7 52 19 82 25 30 6 64 13 75 15 11 3 85 3 165 2 112 -3 163 -8 225
-25z m-182 -236 c84 -17 222 -73 289 -117 137 -87 240 -211 262 -315 8 -34 6
-36 -69 -48 -22 -3 -47 -8 -56 -11 -11 -3 -27 15 -55 62 -76 130 -233 241
-400 284 -112 29 -271 26 -348 -5 -17 -8 -18 -4 -12 51 4 32 13 64 19 71 38
39 245 55 370 28z m-998 -109 c221 -41 778 -156 809 -166 72 -25 135 -105 136
-172 0 -23 -50 -265 -66 -319 -4 -13 -14 -15 -52 -11 -26 2 -48 6 -50 7 -2 2
4 39 13 83 25 124 7 149 -125 176 -124 25 -709 133 -792 146 -83 13 -120 6
-152 -28 -18 -21 -48 -146 -39 -168 5 -14 2 -16 -16 -11 -17 4 -20 3 -11 -8 7
-9 7 -21 0 -39 -5 -15 -10 -32 -10 -37 0 -5 88 -9 213 -9 l212 -1 49 -105 c38
-80 47 -107 38 -116 -15 -15 -13 -18 -64 87 l-44 90 -207 0 c-114 0 -207 -3
-207 -7 -1 -4 -7 -26 -15 -49 -8 -23 -15 -43 -15 -45 0 -2 76 -4 168 -4 l169
0 81 -174 c45 -96 82 -179 82 -185 0 -6 3 -11 7 -11 4 0 98 89 208 198 l200
197 228 -3 c191 -2 227 -5 227 -17 0 -11 -13 -15 -54 -15 -59 0 -60 -1 -70
-42 -5 -21 -3 -28 9 -28 8 0 15 -4 15 -10 0 -33 -193 -837 -316 -1315 -91
-353 -97 -361 -294 -359 -189 2 -711 53 -880 85 -109 21 -180 86 -180 163 0
31 53 309 76 403 l6 24 -110 -4 c-69 -2 -115 0 -122 7 -29 29 11 77 48 57 10
-5 58 -9 107 -7 l89 2 12 46 c6 26 9 49 7 52 -3 3 -99 5 -214 6 -145 0 -215
-3 -228 -12 -15 -9 -24 -8 -45 5 -14 10 -26 21 -26 25 0 20 28 44 51 43 13 -1
44 -2 69 -3 25 -2 129 -1 233 0 l187 2 0 29 c0 35 -19 44 -75 35 -51 -7 -65
12 -33 45 18 21 21 21 41 6 31 -22 47 -28 54 -22 5 6 63 243 63 262 0 11 -146
13 -157 2 -3 -4 -19 -7 -34 -7 -23 0 -30 6 -35 27 -10 39 16 54 81 47 l51 -6
12 38 c6 22 16 55 22 74 l10 35 -5 -40 c-2 -22 -7 -55 -11 -72 l-6 -33 43 0
44 0 43 183 c24 100 46 193 49 206 l6 24 -70 -7 c-57 -6 -72 -4 -83 9 -22 26
2 37 86 39 85 1 77 -6 98 79 l6 27 -119 0 c-93 0 -121 -3 -131 -15 -7 -8 -20
-15 -30 -15 -10 0 -23 7 -30 15 -10 12 -40 15 -151 15 -132 0 -139 1 -139 20
0 19 7 20 133 20 100 1 137 4 151 15 25 19 55 19 80 0 15 -11 47 -15 130 -14
61 1 122 5 136 9 17 5 19 8 7 9 -15 1 -16 7 -11 43 6 37 5 41 -10 35 -10 -4
-29 -7 -42 -7 -14 0 -22 -4 -19 -10 10 -16 -11 -12 -25 5 -7 8 -25 15 -40 15
-34 0 -54 22 -45 49 7 23 39 36 57 25 7 -5 43 -9 80 -10 63 -3 68 -1 73 19 2
12 18 83 35 156 16 74 30 139 30 144 0 4 -13 -1 -28 -12 -37 -26 -80 -105 -87
-162 -8 -56 -34 -129 -46 -129 -23 0 39 289 69 324 24 27 75 46 121 46 21 0
54 7 72 15 47 20 84 18 234 -9z m1005 -147 c139 -48 262 -183 272 -298 3 -32
1 -33 -55 -51 l-59 -18 -20 46 c-39 89 -128 196 -190 228 -16 8 -25 20 -22 28
6 16 -59 76 -84 77 -14 0 -14 2 3 9 26 11 85 3 155 -21z m6650 -434 c46 -8
112 -24 147 -36 l62 -20 -26 -67 c-85 -225 -90 -237 -104 -234 -8 2 -41 11
-74 20 -43 12 -100 17 -205 17 -144 0 -146 0 -212 -33 -43 -21 -80 -48 -102
-76 -77 -93 -137 -271 -139 -416 -3 -111 13 -142 91 -178 50 -23 70 -26 162
-26 85 0 129 7 233 33 71 18 130 31 131 29 2 -2 -11 -73 -28 -158 l-31 -155
-110 -29 c-146 -37 -386 -48 -514 -22 -311 63 -432 232 -392 550 42 328 184
573 408 699 90 51 181 85 270 101 105 19 327 20 433 1z m-5852 -137 c38 -73
104 -200 147 -283 43 -82 79 -151 80 -152 0 -1 129 126 286 282 l285 285 232
0 c183 0 232 -3 232 -13 0 -7 -7 -39 -15 -71 -12 -45 -200 -861 -276 -1198
-10 -42 -14 -48 -37 -49 -81 -2 -397 3 -400 6 -3 2 7 50 21 107 28 112 147
618 147 625 0 5 -478 -464 -547 -536 -23 -25 -44 -43 -47 -40 -7 7 -168 288
-256 447 l-85 153 -13 -63 c-36 -167 -124 -561 -140 -623 l-18 -70 -216 -3
-216 -2 14 57 c54 226 152 648 199 858 31 138 62 275 69 305 8 30 17 67 20 83
l6 27 229 0 229 0 70 -132z m2424 32 c129 -726 179 -1013 193 -1105 10 -60 18
-111 20 -113 1 -1 21 23 45 54 54 72 208 249 381 439 l136 150 -50 110 c-27
61 -95 207 -149 325 -55 118 -102 221 -105 228 -4 10 49 12 262 10 l268 -3 34
-90 c18 -49 51 -142 73 -205 22 -63 43 -121 45 -128 3 -8 48 42 107 120 56 73
133 172 171 221 l69 87 271 0 271 0 -40 -42 c-22 -24 -117 -126 -210 -228 -93
-102 -217 -238 -276 -302 l-108 -117 160 -314 c88 -173 160 -317 160 -321 0
-3 -118 -5 -262 -4 l-262 3 -84 188 c-47 103 -88 187 -91 187 -3 -1 -19 -17
-34 -38 -15 -20 -85 -106 -155 -189 l-126 -153 -467 0 -467 0 -6 28 c-3 15 -8
47 -11 72 -3 25 -8 57 -11 73 l-6 27 -275 -2 -276 -3 -55 -97 -56 -98 -121 -1
c-66 -1 -156 -3 -200 -5 -139 -7 -136 -13 -47 134 43 70 145 233 227 362 128
202 372 591 490 783 l35 57 258 -2 257 -3 17 -95z m4783 78 c-3 -13 -20 -84
-38 -158 l-33 -135 -283 -5 -284 -5 -23 -95 c-13 -52 -23 -98 -24 -102 0 -5
110 -8 245 -8 135 0 245 -3 245 -7 -1 -5 -15 -69 -33 -143 l-33 -135 -249 -5
-249 -5 -23 -90 c-12 -49 -23 -98 -23 -107 0 -17 20 -18 279 -18 l279 0 -37
-147 -37 -148 -487 0 c-267 1 -488 3 -491 5 -6 7 138 636 259 1138 l47 192
499 0 499 0 -5 -22z m561 6 c-3 -9 -27 -107 -52 -218 -25 -110 -77 -330 -115
-487 -38 -158 -69 -292 -69 -298 0 -8 76 -11 255 -11 140 0 255 -3 255 -7 0
-18 -69 -286 -75 -292 -7 -6 -843 -9 -906 -2 -36 3 -36 4 -28 35 9 32 101 423
164 696 46 199 135 571 140 588 3 9 57 12 221 12 194 0 216 -2 210 -16z m1064
-3 c0 -11 -32 -151 -70 -313 -81 -334 -150 -630 -157 -670 l-5 -28 256 0 c141
0 256 -2 256 -4 0 -13 -70 -289 -74 -293 -10 -10 -211 -13 -567 -7 l-376 7 13
51 c7 28 36 150 63 271 27 121 73 319 101 440 28 121 67 290 86 375 19 85 38
163 40 173 5 15 24 17 220 17 205 0 214 -1 214 -19z m-7459 -349 c15 -152 7
-398 -15 -444 -9 -18 -34 -57 -56 -86 -22 -29 -40 -58 -40 -65 0 -8 -11 -24
-25 -37 -13 -12 -29 -38 -36 -57 -6 -19 -13 -33 -14 -31 -2 2 7 71 21 153 13
83 27 211 31 285 3 84 11 144 19 160 19 34 84 237 85 264 1 53 19 -31 30 -142z
m-2978 86 c-22 -25 -29 -23 -42 14 -15 42 4 56 36 26 22 -20 22 -23 6 -40z
m-1197 -180 c-248 -250 -419 -508 -476 -718 -28 -103 -28 -264 0 -345 69 -202
274 -350 620 -450 364 -105 831 -111 1470 -19 404 58 1342 266 1703 378 42 13
77 20 77 16 0 -8 -392 -188 -550 -253 -118 -48 -471 -168 -653 -221 -689 -202
-1411 -300 -1897 -255 -432 39 -721 131 -929 295 -124 98 -197 205 -232 341
-71 278 45 542 395 902 145 148 271 254 415 348 64 41 132 86 151 99 19 12 38
23 41 23 3 1 -57 -63 -135 -141z m291 -230 c-3 -8 -6 -5 -6 6 -1 11 2 17 5 13
3 -3 4 -12 1 -19z m-10 -40 c-3 -8 -6 -5 -6 6 -1 11 2 17 5 13 3 -3 4 -12 1
-19z m-20 -110 c-3 -8 -6 -5 -6 6 -1 11 2 17 5 13 3 -3 4 -12 1 -19z m-84
-468 c-13 -64 -20 -137 -24 -250 -1 -14 2 -53 6 -88 6 -47 13 -67 29 -77 14
-11 20 -24 18 -46 -1 -17 3 -38 9 -45 20 -24 -6 -15 -49 16 -80 57 -88 110
-46 299 52 238 62 277 68 270 2 -2 -3 -38 -11 -79z m-1198 11 c-44 -112 -58
-190 -59 -311 0 -127 14 -190 66 -294 121 -240 407 -417 843 -520 26 -7 17 6
-67 92 -54 54 -98 103 -98 108 0 4 15 -6 33 -22 30 -29 117 -60 190 -68 16 -2
65 -33 123 -80 l95 -77 122 -9 c67 -5 125 -10 130 -10 14 0 7 19 -10 24 -10 4
-36 22 -58 42 l-40 36 36 -21 c20 -12 43 -21 51 -21 8 0 35 -14 61 -31 l46
-30 213 11 c476 24 891 91 1453 235 330 85 1018 303 1220 387 57 24 63 31 135
136 42 61 104 166 140 234 56 108 65 119 73 100 8 -18 0 -40 -41 -121 -28 -55
-78 -141 -111 -193 -58 -90 -68 -115 -36 -88 9 8 15 9 15 2 0 -6 -20 -24 -43
-41 -24 -16 -59 -47 -77 -68 -83 -97 -285 -294 -375 -366 -315 -252 -647 -405
-1050 -484 -117 -22 -529 -25 -681 -4 -94 13 -107 12 -210 -7 -60 -12 -135
-25 -166 -28 -32 -4 -58 -10 -58 -13 0 -10 221 -68 350 -91 148 -28 438 -37
616 -21 523 49 1040 281 1429 642 269 249 410 434 555 725 l85 171 30 -8 c16
-5 46 -9 67 -11 47 -2 47 -9 8 -108 -17 -41 -30 -78 -30 -81 0 -3 28 0 63 7
94 20 4939 20 5013 0 177 -47 305 -187 336 -366 39 -229 -124 -456 -361 -500
-35 -6 -913 -10 -2500 -10 -2061 0 -2456 3 -2512 14 -163 35 -298 145 -350
285 l-21 59 -71 -76 c-346 -369 -700 -605 -1137 -756 -281 -98 -478 -135 -765
-143 -354 -10 -673 47 -980 174 l-110 46 -315 1 c-247 1 -337 5 -418 19 -353
59 -570 133 -763 262 -160 107 -271 241 -327 397 -23 66 -26 87 -26 213 1 122
4 151 27 228 33 106 107 257 193 389 35 54 65 98 68 98 2 0 -6 -27 -19 -59z
m635 -156 c4 3 31 -37 58 -87 28 -51 72 -127 99 -168 63 -97 71 -112 37 -75
-23 25 -26 26 -20 7 4 -12 5 -22 2 -22 -13 0 -188 304 -200 350 -6 21 -5 22 4
7 6 -9 15 -15 20 -12z m1217 -451 c-3 -3 -12 -4 -19 -1 -8 3 -5 6 6 6 11 1 17
-2 13 -5z m9608 -489 c24 -23 25 -28 25 -171 0 -113 3 -145 13 -141 19 7 57
-11 57 -28 0 -12 15 -15 73 -16 39 -1 106 -4 147 -8 73 -6 70 -7 -71 -15 -135
-7 -146 -9 -155 -29 -5 -13 -20 -23 -36 -25 l-28 -3 0 -124 c0 -122 0 -124
-26 -144 -25 -19 -40 -21 -191 -21 -161 0 -164 0 -188 25 l-25 24 0 327 c0
413 -22 374 212 374 166 0 169 0 193 -25z m-7174 -343 c4 -4 3 -17 -2 -29 -7
-19 -12 -21 -39 -13 -18 5 -45 6 -61 3 -57 -11 -91 -92 -52 -124 15 -13 80
-18 113 -8 9 2 16 -4 18 -18 4 -29 -35 -40 -126 -35 -49 3 -92 49 -92 99 0 91
80 149 190 137 25 -3 48 -9 51 -12z m2481 2 c4 -3 2 -15 -3 -28 -10 -22 -14
-23 -47 -14 -24 7 -43 6 -59 -1 -32 -15 -23 -26 30 -39 58 -15 84 -44 71 -79
-16 -46 -58 -68 -129 -68 -70 0 -87 9 -79 42 5 18 10 20 31 12 36 -14 89 -11
102 5 14 17 3 25 -62 45 -81 27 -70 110 18 134 21 6 113 -1 127 -9z m1346 1
c2 -2 0 -15 -4 -29 -5 -21 -10 -25 -23 -20 -9 5 -33 8 -55 8 -30 0 -44 -6 -63
-28 -54 -63 -6 -129 78 -108 37 9 39 9 39 -13 0 -28 -25 -39 -91 -38 -66 1
-106 25 -120 72 -10 33 -9 44 7 77 23 46 60 75 111 84 32 6 111 3 121 -5z
m310 -1 c9 -2 11 -12 6 -26 -9 -30 -6 -29 -43 -18 -50 14 -90 2 -112 -34 -25
-41 -24 -52 7 -82 21 -22 31 -25 60 -19 20 3 42 9 50 12 10 4 14 -2 14 -20 0
-31 -23 -41 -92 -40 -97 1 -149 66 -117 149 17 44 54 74 106 84 35 7 89 4 121
-6z m936 -9 c48 -31 59 -97 26 -150 -49 -80 -196 -97 -249 -28 -34 43 -22 124
23 162 49 41 150 49 200 16z m860 11 c127 -53 57 -227 -92 -229 -93 -1 -146
56 -124 131 26 87 130 134 216 98z m329 7 c35 -5 38 -8 32 -32 -9 -33 -5 -32
-48 -19 -28 8 -43 8 -62 0 -33 -15 -25 -29 20 -38 20 -3 46 -15 60 -26 69 -54
-16 -138 -125 -123 -58 8 -72 17 -64 39 6 15 14 16 55 11 89 -12 126 24 47 46
-55 14 -78 35 -78 69 0 29 21 53 60 69 30 12 53 13 103 4z m-5955 -25 c-3 -21
-9 -23 -70 -26 -60 -3 -68 -5 -68 -22 0 -17 7 -20 55 -20 59 0 60 -1 45 -31
-8 -15 -21 -19 -59 -19 -36 0 -51 -4 -55 -16 -9 -23 -9 -22 57 -25 61 -3 71
-8 61 -33 -5 -13 -24 -16 -106 -16 -99 0 -100 0 -95 23 3 12 13 64 23 115 l18
92 99 0 c96 0 98 0 95 -22z m167 -25 c-4 -27 -11 -66 -15 -88 -5 -22 -7 -42
-4 -44 2 -3 29 -3 60 -2 53 2 55 1 52 -21 -3 -22 -7 -23 -102 -26 -98 -3 -98
-3 -93 20 3 13 13 65 22 116 l17 92 35 0 34 0 -6 -47z m268 -33 c-17 -88 -10
-110 31 -110 41 0 55 22 72 108 l17 82 34 0 34 0 -7 -47 c-13 -92 -36 -146
-73 -167 -63 -36 -172 -21 -187 26 -3 11 0 57 7 104 l12 84 37 0 37 0 -14 -80z
m362 58 c-19 -84 -32 -158 -26 -159 3 0 30 0 59 1 51 1 53 0 50 -22 -3 -22 -7
-23 -95 -26 -65 -2 -93 1 -93 9 0 14 30 189 36 207 2 6 19 12 39 12 32 0 35
-2 30 -22z m400 -65 c14 -49 30 -100 35 -115 9 -27 8 -28 -30 -28 -32 0 -39 4
-42 23 -3 19 -10 22 -53 25 -44 3 -52 0 -71 -23 -16 -20 -28 -26 -52 -23 l-30
3 71 113 c70 110 71 112 108 112 l38 0 26 -87z m360 62 c33 -32 31 -52 -9 -89
l-33 -32 24 -42 25 -42 -38 0 c-35 1 -42 5 -66 45 -15 25 -31 45 -36 45 -5 0
-13 -19 -18 -42 -8 -40 -12 -43 -44 -46 l-36 -3 21 116 20 115 83 0 c75 0 85
-2 107 -25z m331 9 c-3 -9 -6 -20 -6 -25 0 -5 -29 -9 -65 -9 -58 0 -65 -2 -65
-20 0 -17 7 -20 51 -20 47 0 50 -2 47 -22 -3 -20 -10 -23 -60 -26 -53 -3 -58
-5 -58 -26 0 -21 3 -22 60 -18 59 4 60 4 60 -22 l0 -26 -101 0 -101 0 6 28 c3
15 10 56 16 92 20 122 7 110 121 110 88 0 100 -2 95 -16z m649 -24 c10 -22 22
-40 26 -40 4 0 23 18 42 40 28 33 40 40 71 40 l37 0 -65 -75 c-42 -48 -66 -84
-66 -100 0 -42 -10 -55 -46 -55 l-33 0 6 49 c5 44 2 57 -31 115 l-37 66 39 0
c36 0 40 -3 57 -40z m621 -65 c18 -55 33 -106 33 -112 1 -8 -12 -13 -34 -13
-29 0 -36 4 -41 25 -6 22 -11 25 -55 25 -41 0 -51 -4 -65 -25 -12 -19 -25 -25
-50 -25 -19 0 -34 2 -34 5 0 3 32 55 72 116 70 108 72 110 107 107 35 -3 35
-3 67 -103z m982 83 c-3 -21 -10 -24 -68 -28 -51 -4 -66 -9 -68 -22 -3 -16 5
-18 53 -18 48 0 56 -3 51 -16 -3 -9 -6 -20 -6 -25 0 -5 -25 -9 -55 -9 -42 0
-55 -3 -55 -15 0 -8 0 -18 0 -21 0 -4 26 -7 58 -8 50 -1 57 -3 57 -21 0 -18
-8 -20 -101 -23 l-100 -3 20 116 19 115 99 0 c97 0 99 0 96 -22z m297 12 c3
-5 1 -18 -5 -29 -8 -17 -15 -18 -42 -10 -40 11 -88 3 -88 -16 0 -7 21 -18 49
-25 63 -15 88 -41 75 -77 -16 -47 -58 -68 -130 -67 -70 1 -89 11 -80 42 6 17
11 18 44 9 45 -12 92 -3 92 18 0 8 -17 19 -42 26 -79 21 -101 67 -53 114 21
22 33 25 99 25 41 0 78 -4 81 -10z m679 -11 c14 -11 26 -30 26 -43 0 -27 -27
-66 -46 -66 -19 0 -18 -19 6 -58 11 -18 20 -35 20 -37 0 -3 -17 -5 -38 -5 -35
0 -40 3 -60 46 -12 25 -28 44 -35 41 -6 -2 -15 -22 -20 -45 -8 -40 -10 -42
-43 -42 -25 0 -34 4 -34 17 0 18 28 180 35 201 3 8 29 12 83 12 65 0 84 -4
106 -21z m191 -91 l-21 -113 -38 -3 c-29 -3 -37 0 -33 10 2 8 13 60 23 116
l17 102 37 0 36 0 -21 -112z"/>
<path d="M4842 5591 c-19 -11 -11 -45 11 -49 9 -2 20 4 23 13 9 21 -16 47 -34
36z"/>
<path d="M4960 5555 c-9 -11 -10 -19 -3 -26 5 -5 83 -24 172 -41 139 -27 164
-30 171 -17 16 25 -10 35 -155 63 -77 15 -147 29 -156 32 -9 2 -22 -3 -29 -11z"/>
<path d="M5364 5476 c-9 -24 4 -48 23 -44 12 2 18 12 18 28 0 29 -32 41 -41
16z"/>
<path d="M5218 4913 c-47 -49 -138 -139 -202 -202 l-115 -114 -91 186 -91 187
-165 0 c-124 0 -164 -3 -164 -12 0 -7 -3 -23 -6 -35 l-6 -23 150 0 150 0 62
-127 c34 -71 78 -163 97 -205 20 -43 39 -78 42 -78 3 0 105 99 226 220 l220
220 107 0 c80 0 108 3 108 13 0 6 3 22 6 35 6 22 6 22 -118 22 l-124 0 -86
-87z"/>
<path d="M4506 4402 c-9 -43 -19 -89 -22 -102 -6 -25 -6 -25 21 4 14 15 27 27
29 25 15 -23 56 -153 52 -166 -3 -10 -55 -68 -116 -128 l-110 -110 -97 -5 -96
-5 -19 -80 c-20 -86 -18 -119 10 -134 54 -29 602 -98 857 -107 237 -10 227
-16 270 170 8 38 13 71 10 74 -3 3 -55 5 -115 3 -92 -2 -110 1 -110 13 0 8 23
104 51 213 83 324 97 378 95 380 -2 2 -94 -86 -207 -195 -183 -176 -207 -197
-234 -194 -28 3 -36 14 -124 190 -52 103 -99 197 -105 209 -6 13 -14 23 -17
23 -3 0 -14 -35 -23 -78z m599 -154 c-19 -87 -23 -114 -15 -123 9 -12 -85
-113 -96 -102 -15 15 40 169 79 217 27 35 39 38 32 8z"/>
<path d="M4489 4270 c-9 -5 -25 -39 -34 -75 -26 -94 -56 -115 -167 -115 l-84
0 -12 -45 c-7 -25 -12 -50 -12 -55 0 -6 29 -10 66 -10 l66 0 94 87 c74 68 92
91 88 107 -3 13 5 34 20 54 34 47 19 78 -25 52z"/>
<path d="M4229 4180 c-1 -11 -2 -25 -3 -32 -1 -8 25 -10 84 -9 65 1 88 6 98
18 27 37 16 43 -83 43 -88 0 -95 -2 -96 -20z"/>
<path d="M4618 3524 c-35 -18 -48 -43 -48 -89 0 -69 64 -104 130 -70 35 18 50
43 50 84 0 43 -9 60 -41 76 -35 19 -56 18 -91 -1z"/>
<path d="M8572 4650 c-50 -96 -116 -221 -147 -277 l-55 -103 180 0 c154 0 180
2 180 15 0 14 -57 491 -63 525 -1 8 -44 -64 -95 -160z"/>
<path d="M9407 3400 c-159 -25 -242 -107 -254 -249 -12 -141 32 -228 143 -282
61 -31 76 -33 186 -37 220 -8 322 31 384 148 27 51 27 219 0 274 -50 100 -137
144 -299 151 -56 2 -128 0 -160 -5z m226 -124 c18 -7 40 -22 50 -33 26 -30 40
-121 27 -179 -20 -88 -62 -115 -186 -115 -146 -1 -194 42 -194 171 0 127 48
170 188 170 47 0 96 -6 115 -14z"/>
<path d="M8197 3392 c-7 -10 -7 -197 0 -389 l5 -163 79 0 79 0 2 182 3 183
100 -180 100 -180 51 -3 52 -3 55 103 c31 57 76 139 101 183 l46 80 0 -182 0
-183 85 0 85 0 -2 278 -3 277 -104 0 -104 0 -47 -80 c-26 -44 -73 -124 -104
-179 l-58 -99 -100 182 -99 181 -109 0 c-60 0 -111 -3 -113 -8z"/>
<path d="M10008 3395 c-4 -4 -7 -131 -8 -282 l-1 -274 263 3 c239 3 267 5 303
23 55 28 85 76 85 137 0 43 -4 54 -34 84 -19 19 -41 34 -50 34 -22 0 -20 17 3
25 50 16 70 115 35 175 -10 17 -39 40 -64 53 -42 21 -60 22 -285 25 -132 2
-243 0 -247 -3z m431 -129 c26 -24 27 -48 2 -70 -16 -14 -45 -19 -140 -23
l-121 -6 0 55 c0 30 2 57 5 60 3 3 57 5 119 4 97 -1 117 -4 135 -20z m26 -221
c14 -13 25 -29 25 -35 0 -6 -11 -22 -25 -35 -23 -24 -29 -25 -160 -25 l-136 0
5 58 c3 31 5 58 5 60 1 1 60 2 131 2 126 0 132 -1 155 -25z"/>
<path d="M10770 3120 l0 -280 80 0 80 0 0 280 0 280 -80 0 -80 0 0 -280z"/>
<path d="M11090 3120 l0 -280 264 0 c295 0 267 -7 281 73 l6 37 -190 0 -191 0
-2 223 -3 222 -82 3 -83 3 0 -281z"/>
<path d="M11730 3120 l0 -280 279 0 279 0 4 51 c1 28 1 53 -1 55 -2 2 -92 4
-198 4 l-194 0 3 58 3 57 171 5 171 5 -1 45 -1 45 -170 5 -170 5 -3 53 -3 52
195 0 196 0 0 60 0 60 -280 0 -280 0 0 -280z"/>
<path d="M7084 3200 c-5 -5 -133 -72 -284 -148 -596 -299 -979 -446 -1558
-595 -73 -19 -135 -37 -138 -40 -11 -10 255 -20 401 -14 222 9 365 37 595 115
336 115 654 325 945 621 38 39 65 71 59 71 -5 0 -14 -4 -20 -10z"/>
<path d="M14010 2720 c0 -5 16 -10 35 -10 19 0 35 5 35 10 0 6 -16 10 -35 10
-19 0 -35 -4 -35 -10z"/>
<path d="M13860 2390 l0 -280 183 2 182 3 3 91 c2 84 1 92 -21 116 -20 22 -38
28 -103 35 l-79 9 78 8 c120 13 127 22 127 175 l0 121 -185 0 -185 0 0 -280z"/>
<path d="M14024 2069 c-9 -15 12 -33 30 -26 9 4 16 13 16 22 0 17 -35 21 -46
4z"/>
<path d="M11996 2338 c-37 -32 -44 -80 -17 -107 27 -27 63 -27 95 2 37 31 44
79 17 106 -27 27 -63 27 -95 -1z"/>
<path d="M12893 2350 c-27 -11 -43 -40 -43 -79 0 -59 57 -80 104 -38 37 31 44
79 17 106 -22 22 -42 25 -78 11z"/>
<path d="M8470 2303 c-8 -16 -16 -32 -18 -36 -2 -5 9 -7 24 -5 24 2 28 7 26
28 -6 39 -17 43 -32 13z"/>
<path d="M8797 2338 c-4 -12 -7 -26 -7 -30 0 -15 68 -8 80 7 16 20 5 33 -36
41 -27 5 -32 3 -37 -18z"/>
<path d="M10427 2303 c-22 -41 -22 -43 8 -43 26 0 31 16 16 55 -7 18 -9 17
-24 -12z"/>
<path d="M12360 2347 c0 -8 -3 -22 -6 -31 -5 -13 1 -16 29 -16 37 0 67 24 51
40 -5 5 -24 13 -42 16 -25 5 -32 3 -32 -9z"/>
</g>
</svg>
