<svg version="1.2" xmlns="http://www.w3.org/2000/svg" viewBox="0 0 848 107" width="476" height="60">
	<style>
		.s0 { fill: #000000 } 
	</style>
	<g>
		<path class="s0" d="m513.8 1c-30 4.8-49.6 19.6-57.5 43.5-2.1 6.6-2.6 10-2.7 19 0 6.2 0.5 12.8 1.2 15.2 1.8 6.1 7 13.2 12.7 17.5 10.4 7.9 23.1 10.7 48 10.7 14.6 0 31.6-1.6 32.8-3 0.6-0.6 5.7-22.7 5.7-24.4 0-1.8-0.5-1.8-10.5 0-10.9 2-29.7 1.9-36.4-0.1-3-0.8-6.9-3-8.9-4.9l-3.7-3.4v-9.9c0-9.4 0.2-10.3 3.5-16.8 4-7.8 10.2-13.2 18.5-16.1 7.1-2.5 26.4-2.5 36.3 0.1 4 1 7.4 1.7 7.6 1.5 0.3-0.4 6.7-23.6 6.9-25.4 0.5-2.6-41.7-5.4-53.5-3.5z"/>
		<path class="s0" d="m16.5 2.2c-0.2 0.7-0.9 4.4-1.4 8.3-0.6 3.8-4.3 26.3-8.1 49.9-3.9 23.6-7 43.5-7 44.2 0 1.1 3.4 1.4 17.9 1.4h17.9l0.6-2.8c1.2-6 8.6-54.8 8.6-56.9 0-1.3 0.3-2.3 0.8-2.2 0.4 0 6.8 9.3 14.2 20.5 14.6 22.1 17 25.1 19.3 23.7 1.6-0.9 14-14.8 30.6-34.1 6.2-7.3 11.5-13.1 11.7-12.9 0.2 0.2-0.1 1.9-0.6 3.8-0.8 2.7-7.3 38-10.7 57.6l-0.6 3.3h35.1 35l5.5-9.1 5.4-9 26.2-0.2 26.2-0.2 0.8 3.5c0.5 1.9 1.5 6 2.2 9l1.4 5.5 37.5 0.2 37.5 0.3 13.8-15c7.6-8.3 14.1-15 14.5-14.9 0.4 0 4 6.7 7.9 15l7.3 14.9h23.1 23.1l-3.3-5.8c-7.9-13.8-25.9-47.7-25.7-48.3 0.2-0.4 10.7-11.6 23.3-24.9 12.7-13.4 23.2-24.7 23.3-25.1 0.2-0.5-10.2-0.9-23.1-0.9h-23.5l-12.3 16.2-12.2 16.1-8.1-16.1-8.1-16.2h-22.7c-12.6 0-22.8 0.2-22.8 0.5 0 0.3 7.2 12.1 16.1 26.3l16 25.7-22.2 21.8c-12.2 12-22.3 21.6-22.4 21.5-0.1-0.2-5.5-20.8-11.9-45.8-6.5-25-12.2-46.5-12.7-47.8-0.9-2.2-0.9-2.2-25.4-2.2h-24.6l-8.7 13.5c-10.7 16.5-38.3 59.7-47.4 74.1-7.7 12.2-8.3 12.9-7.5 8.9 0.4-1.7 4.3-23 8.7-47.5 4.4-24.5 8.2-45.5 8.5-46.8l0.5-2.2h-22.3-22.3l-17.4 19.7c-9.5 10.9-17.6 19.9-18 20.1-0.6 0.2-4-5.8-17.2-30.8l-4.5-8.5-22.7-0.3c-17.6-0.2-22.7 0-23.1 1zm214.9 41.6c2.7 10.8 5.1 20.3 5.3 20.9 0.4 1-3.3 1.3-16.1 1.3h-16.5l7-13.3c3.9-7.2 8.7-16.7 10.7-20.9 2-4.2 3.9-7.7 4.2-7.7 0.3 0 2.7 8.8 5.4 19.7z"/>
		<path class="s0" d="m576.6 8.2c-0.9 4-4.5 22.6-8.1 41.3-3.6 18.7-7.5 38.5-8.5 43.9-1.1 5.4-2 10.5-2 11.2 0 1.2 7.7 1.4 44.9 1.4 42 0 45-0.1 45.5-1.8 0.6-2 4.6-20.9 4.6-21.7 0-0.3-12.2-0.5-27-0.5h-27l0.7-2.8c0.3-1.5 1.2-5.2 1.8-8.2l1.1-5.5 22.7-0.3c12.5-0.1 22.7-0.4 22.7-0.6 0-0.2 0.9-4.8 2-10.1 1.1-5.3 2-10.1 2-10.6 0-0.5-10.1-0.9-22.6-0.9h-22.6l0.6-2.3c0.3-1.2 1.1-5 1.8-8.5l1.1-6.2h25.4 25.3l0.6-2.8c1.1-5 4.5-18.7 5-20.5 0.5-1.6-2.1-1.7-44-1.7h-44.5z"/>
		<path class="s0" d="m675.5 2.2c-0.2 0.7-1 5.1-1.9 9.8-2.1 11.7-16.5 87.9-17.2 91.2l-0.6 2.8h44.6c24.5 0 44.6-0.2 44.6-0.4 0-0.3 1.1-5.6 2.5-12 1.4-6.4 2.5-11.8 2.5-12.1 0-0.3-11.2-0.5-25-0.5-16.4 0-25-0.4-25-1 0-0.6 3.2-17.9 7-38.4 3.9-20.6 7-38.1 7-39 0-1.4-2.3-1.6-19-1.6-14.4 0-19.2 0.3-19.5 1.2z"/>
		<path class="s0" d="m771.5 3.2c-0.3 1.3-4.3 23-9 48.3-4.7 25.3-8.9 47.9-9.4 50.2l-0.9 4.3h45.7 45.8l2.1-10.8c1.2-6 2.2-11.6 2.2-12.5 0-1.6-2.2-1.7-25.5-1.7-14 0-25.5-0.3-25.5-0.7 0-0.9 9.6-51.2 12.6-65.6 1.3-6.6 2.4-12.4 2.4-12.8 0-0.5-9-0.9-20-0.9-19.9 0-20 0-20.5 2.2z"/>
	</g>
</svg>