<?xml version="1.0" standalone="no"?>
<!DOCTYPE svg PUBLIC "-//W3C//DTD SVG 20010904//EN"
 "http://www.w3.org/TR/2001/REC-SVG-20010904/DTD/svg10.dtd">
<svg version="1.0" xmlns="http://www.w3.org/2000/svg"
 width="1536.000000pt" height="1024.000000pt" viewBox="0 0 1536.000000 1024.000000"
 preserveAspectRatio="xMidYMid meet">

<g transform="translate(0.000000,1024.000000) scale(0.100000,-0.100000)"
fill="#000000" stroke="none">
<path d="M3850 7589 c-308 -43 -558 -132 -809 -288 -292 -181 -549 -473 -702
-796 -195 -413 -235 -937 -102 -1335 47 -138 37 -132 88 -62 l45 62 -19 57
c-45 134 -56 226 -55 473 0 217 2 245 27 364 79 370 281 706 584 972 423 370
1016 513 1588 385 133 -30 206 -56 340 -120 327 -157 640 -454 812 -768 51
-95 121 -266 149 -365 l19 -68 57 0 c69 0 68 -3 33 128 -104 387 -377 767
-737 1025 -228 163 -478 268 -770 324 -97 18 -447 26 -548 12z"/>
<path d="M3975 7374 c-16 -2 -73 -9 -125 -15 -469 -53 -919 -335 -1185 -743
-69 -106 -154 -283 -189 -393 -81 -261 -101 -583 -51 -834 20 -100 29 -119 46
-102 8 8 7 35 -7 110 -29 151 -27 469 4 620 88 436 331 796 707 1048 191 128
392 205 644 246 106 18 154 20 301 16 96 -3 189 -8 205 -11 17 -4 55 -11 85
-17 159 -30 342 -99 484 -181 363 -212 616 -523 751 -923 20 -60 40 -113 43
-117 4 -4 13 -3 21 1 11 7 6 32 -29 137 -90 274 -237 505 -445 702 -230 218
-550 379 -856 431 -111 19 -344 33 -404 25z"/>
<path d="M4370 6819 c-110 -12 -197 -59 -197 -105 0 -24 2 -25 36 -19 77 15
273 7 353 -14 183 -48 343 -163 441 -318 14 -23 31 -44 37 -48 10 -6 117 22
133 36 21 17 -87 175 -170 249 -190 168 -411 244 -633 219z"/>
<path d="M4285 6607 c-77 -17 -135 -55 -135 -91 0 -3 64 -6 143 -6 177 0 233
-15 348 -91 64 -43 115 -98 135 -145 l13 -32 63 15 c35 8 65 17 67 19 23 23
-163 215 -251 260 -135 69 -272 94 -383 71z"/>
<path d="M3392 6515 c-39 -33 -59 -77 -82 -184 -27 -124 -25 -121 -75 -121
-29 0 -45 -5 -49 -15 -3 -8 -1 -15 5 -15 6 0 7 -4 4 -10 -4 -6 10 -10 34 -10
34 0 41 -3 41 -19 0 -33 -19 -71 -32 -66 -7 3 -83 9 -168 14 -156 9 -186 4
-185 -26 0 -27 29 -34 185 -43 90 -6 165 -12 168 -15 2 -2 2 -16 -2 -30 -6
-24 -10 -25 -76 -25 -39 0 -70 -4 -70 -9 0 -5 -2 -16 -6 -24 -4 -11 9 -15 68
-16 39 -1 73 -3 74 -4 2 -2 -43 -207 -68 -309 l-9 -38 -100 0 c-97 0 -146 -11
-134 -31 4 -5 55 -9 116 -9 80 0 109 -3 109 -12 0 -13 -23 -145 -36 -205 l-6
-32 -180 -3 c-145 -2 -180 -6 -188 -18 -5 -8 -6 -18 -2 -22 4 -4 158 -9 342
-10 220 -2 335 -7 335 -13 0 -6 -12 -26 -26 -44 l-27 -34 -206 2 c-203 1 -239
-3 -258 -33 -12 -18 -1 -21 81 -21 45 0 81 -4 81 -8 0 -4 -14 -78 -31 -164
-39 -194 -36 -224 22 -275 56 -51 67 -48 28 7 -39 54 -41 94 -10 242 11 54 23
119 27 145 4 34 11 48 25 51 25 7 24 3 -6 -167 -14 -77 -25 -156 -25 -177 0
-43 33 -96 76 -121 50 -29 314 -54 689 -64 210 -6 210 -6 245 18 48 32 72 99
105 283 38 214 153 833 176 945 25 123 28 120 -144 120 l-130 0 -106 -112
c-59 -62 -130 -138 -158 -168 -51 -54 -52 -54 -72 -36 -12 11 -21 24 -21 29 0
7 -98 191 -125 234 -1 2 -64 7 -140 13 -136 9 -155 13 -141 27 8 9 251 6 278
-3 10 -3 30 -26 44 -52 65 -114 115 -190 129 -196 35 -13 23 30 -40 141 -36
65 -70 125 -74 133 -6 12 -48 18 -192 28 -101 7 -184 14 -185 15 -1 1 0 14 3
28 l5 26 181 -4 c100 -3 189 -9 198 -13 9 -5 46 -51 83 -102 36 -51 77 -105
89 -121 l23 -27 106 105 107 105 186 0 c172 0 186 1 183 18 -2 11 -18 20 -43
26 -22 4 -45 10 -51 11 -8 2 -6 21 7 59 27 80 43 185 35 229 -10 55 -56 101
-118 120 -83 24 -475 92 -678 117 -139 17 -184 14 -218 -15z m61 -37 c-11 -13
-25 -32 -31 -43 -8 -16 -52 -201 -52 -220 0 -3 -7 -5 -15 -5 -19 0 -15 28 21
160 22 82 54 130 86 130 6 0 2 -10 -9 -22z m282 -74 c47 -19 41 -26 -18 -18
-30 4 -47 12 -47 20 0 18 19 18 65 -2z m240 -24 c88 -16 95 -19 95 -37 0 -11
-7 -14 -22 -10 -13 3 -73 13 -135 23 -77 11 -114 21 -117 31 -10 26 2 30 56
18 29 -7 85 -18 123 -25z m175 -55 c0 -8 -7 -15 -15 -15 -9 0 -12 6 -9 15 4 8
10 15 15 15 5 0 9 -7 9 -15z m-315 -59 c426 -52 425 -52 441 -73 10 -13 12
-35 8 -86 -6 -59 -4 -70 12 -82 17 -13 5 -14 -102 -15 l-121 0 -94 -101 c-86
-94 -94 -100 -107 -83 -7 11 -44 67 -82 125 l-69 106 -92 6 c-51 4 -113 7
-138 7 -74 0 -77 6 -56 92 10 40 22 90 27 112 9 36 11 38 41 33 18 -2 167 -21
332 -41z m-487 -154 c-7 -15 -15 -31 -20 -36 -12 -14 -10 32 3 55 15 29 30 13
17 -19z m-65 -339 c-12 -65 -26 -140 -29 -166 -7 -50 -16 -62 -39 -53 -11 4
-13 11 -5 31 5 13 19 71 30 127 29 145 39 178 54 178 10 0 7 -27 -11 -117z
m767 -240 c-4 -21 -28 -143 -54 -271 -51 -261 -51 -259 -33 -244 6 5 49 10 95
11 81 2 82 1 77 -21 -3 -13 -14 -54 -24 -93 l-17 -70 -100 1 c-152 2 -760 47
-771 58 -7 7 -22 89 -22 129 l-1 27 84 0 84 0 46 51 c25 28 46 55 46 60 0 4
25 36 55 70 30 34 55 65 55 70 0 5 9 9 20 9 17 0 42 -26 107 -108 25 -32 44
-22 89 46 35 53 205 245 211 238 1 -1 -6 -19 -16 -39 -25 -48 -46 -166 -32
-180 7 -7 12 -2 15 14 3 13 15 67 26 119 20 92 46 160 60 160 4 0 4 -17 0 -37z
m-500 -118 c-9 -5 -15 -15 -13 -22 6 -16 -12 -48 -54 -94 l-35 -39 -150 0
-150 0 7 30 c4 17 12 69 19 116 14 90 22 109 45 95 12 -8 11 -23 -8 -95 -32
-130 -38 -121 81 -118 160 5 163 8 188 156 6 39 14 74 17 79 3 5 20 -15 38
-45 29 -48 30 -54 15 -63z m145 -650 c14 -13 25 -36 25 -50 0 -68 -98 -101
-140 -48 -59 76 47 167 115 98z"/>
<path d="M4360 6422 c49 -33 150 -136 175 -179 14 -23 30 -43 36 -43 12 0 102
22 107 26 8 6 -25 52 -72 102 -67 71 -148 112 -218 111 -53 0 -53 0 -28 -17z"/>
<path d="M4566 6008 c-2 -7 -36 -191 -75 -408 -40 -217 -83 -451 -96 -519 -14
-68 -25 -132 -25 -143 0 -17 12 -18 168 -18 l168 0 53 303 c29 166 56 310 59
320 5 12 41 -44 131 -205 68 -123 130 -231 139 -240 33 -39 22 -49 337 315 71
81 130 146 131 144 2 -1 -3 -28 -11 -58 -8 -31 -35 -168 -60 -305 -25 -137
-47 -255 -50 -261 -3 -10 49 -13 239 -13 l244 0 69 88 c38 48 121 155 183 237
63 83 136 179 163 215 27 36 54 67 60 69 5 2 7 0 4 -5 -3 -5 -28 -135 -56
-289 -29 -154 -54 -288 -57 -297 -5 -17 8 -18 178 -18 l184 0 63 353 c34 193
78 432 97 530 19 98 34 186 34 195 0 16 -18 17 -207 16 l-208 -1 -53 -64 c-29
-35 -153 -194 -275 -352 -122 -159 -223 -284 -225 -278 -2 5 22 161 52 346 31
184 56 338 56 340 0 3 -91 5 -203 5 l-203 0 -171 -197 c-94 -109 -181 -211
-194 -226 l-24 -28 -115 228 -115 228 -193 3 c-149 2 -193 0 -196 -10z"/>
<path d="M10044 6010 c-215 -32 -400 -165 -494 -355 -57 -117 -74 -190 -75
-325 0 -180 46 -275 172 -350 93 -56 171 -73 358 -78 159 -4 357 16 378 37 9
9 69 253 63 258 -1 2 -25 -4 -52 -12 -70 -21 -237 -38 -312 -32 -89 7 -168 48
-196 102 -34 65 -22 198 27 303 30 66 110 147 175 179 54 27 63 28 192 27 85
-1 154 -7 188 -16 29 -9 54 -12 56 -9 11 19 59 241 54 247 -26 25 -412 43
-534 24z"/>
<path d="M7266 5942 c-86 -149 -564 -954 -599 -1009 -6 -10 28 -13 167 -13
l176 0 45 90 45 90 228 -2 227 -3 10 -85 10 -85 346 -3 345 -2 85 107 c46 60
100 129 119 155 19 26 39 46 43 45 4 -1 35 -71 68 -155 l61 -152 205 0 c160 0
204 3 200 13 -3 6 -55 121 -117 255 l-112 242 55 68 c30 37 136 167 236 290
l180 222 -217 0 -217 0 -95 -122 c-52 -67 -104 -133 -115 -146 l-21 -24 -29
73 c-16 41 -44 107 -62 147 l-34 72 -204 0 c-113 0 -205 -4 -205 -8 0 -5 54
-122 120 -261 66 -139 120 -256 120 -261 0 -5 -75 -99 -167 -207 -93 -109
-182 -216 -200 -238 -17 -22 -34 -37 -37 -34 -3 3 -28 143 -55 310 -27 167
-64 393 -82 502 l-32 197 -226 0 -226 0 -39 -68z m229 -397 c14 -110 29 -210
32 -222 l5 -23 -161 0 c-89 0 -161 2 -161 4 0 3 22 40 48 83 27 43 84 142 127
221 43 78 79 141 80 140 2 -2 15 -93 30 -203z"/>
<path d="M10597 5472 c-59 -296 -107 -541 -107 -545 0 -4 189 -7 420 -7 l419
0 10 38 c20 74 41 174 41 190 0 16 -21 17 -245 14 -192 -2 -245 0 -245 10 0 7
8 48 17 90 l16 78 209 0 c207 0 208 0 213 23 3 12 14 60 25 107 11 47 20 91
20 98 0 9 -49 12 -210 12 -129 0 -210 4 -210 10 0 5 7 43 17 85 l16 75 243 0
242 0 27 118 c15 64 30 123 32 130 4 9 -84 12 -419 12 l-424 0 -107 -538z"/>
<path d="M11630 6005 c0 -10 -189 -979 -207 -1062 l-5 -23 411 0 c226 0 411 2
411 4 0 2 9 48 20 101 11 53 20 105 20 114 0 14 -22 16 -225 13 -124 -2 -225
0 -225 5 0 9 155 788 165 831 l5 22 -185 0 c-102 0 -185 -2 -185 -5z"/>
<path d="M12526 5973 c-14 -80 -158 -804 -182 -911 -13 -63 -24 -120 -24 -128
0 -12 59 -14 407 -12 l408 3 16 73 c10 40 20 90 24 112 l7 40 -226 0 c-179 0
-226 3 -226 13 0 13 68 348 134 660 20 93 36 173 36 178 0 5 -80 9 -184 9
l-184 0 -6 -37z"/>
<path d="M2969 5703 c-117 -86 -319 -264 -388 -342 -88 -100 -197 -248 -249
-336 -139 -239 -117 -452 67 -636 63 -63 94 -85 181 -128 177 -87 352 -121
625 -121 285 0 443 21 895 116 228 48 585 157 843 259 236 92 587 251 587 266
0 4 -51 -11 -112 -33 -393 -140 -986 -276 -1425 -329 -224 -26 -588 -36 -744
-20 -366 38 -577 141 -663 321 -27 57 -31 78 -34 165 -4 115 12 201 57 299 55
121 191 305 335 454 54 56 97 104 94 107 -3 3 -34 -16 -69 -42z"/>
<path d="M2091 4879 c-129 -217 -166 -327 -165 -489 1 -85 5 -118 26 -176 51
-143 156 -255 324 -341 211 -108 452 -145 816 -125 180 11 220 10 253 -1 139
-49 382 -87 605 -94 438 -15 824 85 1175 302 143 88 207 138 333 260 169 162
281 313 381 512 28 56 51 104 51 107 0 3 -35 6 -77 5 l-78 0 -43 -87 c-120
-243 -381 -521 -642 -683 -194 -120 -433 -210 -650 -244 -19 -3 -60 -10 -90
-15 -110 -18 -306 -23 -463 -10 -86 7 -157 16 -157 20 0 4 33 13 73 20 119 21
422 105 587 163 337 118 594 241 840 400 85 55 164 107 174 116 44 36 -23 -45
-90 -110 -132 -125 -269 -219 -444 -303 -150 -72 -288 -117 -507 -166 -98 -22
-182 -42 -188 -45 -5 -3 26 -3 70 -1 102 5 311 48 440 92 330 109 611 308 823
583 62 80 182 268 182 285 0 3 -6 6 -13 6 -12 0 -57 -51 -57 -66 0 -11 -118
-169 -147 -196 -77 -72 -296 -163 -753 -315 -345 -114 -686 -187 -1065 -230
-193 -21 -588 -24 -710 -4 -44 7 -93 14 -110 17 -154 24 -300 66 -400 117 -70
35 -161 103 -199 148 -117 138 -141 383 -60 593 8 21 13 40 12 42 -2 1 -28
-38 -57 -87z"/>
<path d="M6181 4744 c-113 -30 -202 -101 -245 -193 -29 -65 -29 -188 1 -252
30 -67 94 -125 181 -167 l77 -37 2140 0 2140 0 63 24 c73 28 150 92 189 158
20 34 27 63 31 117 10 170 -104 305 -299 351 -95 22 -4195 22 -4278 -1z m1677
-99 c112 -34 182 -120 182 -225 -1 -76 -32 -136 -94 -177 -63 -43 -114 -57
-211 -57 -99 0 -173 23 -227 72 -48 43 -64 73 -73 133 -17 114 59 221 185 260
44 13 184 10 238 -6z m-941 -135 c43 -76 80 -139 83 -139 6 0 145 236 156 262
5 14 21 17 100 17 l94 0 -2 -226 -3 -226 -68 -2 -67 -1 0 150 0 150 -84 -145
-84 -145 -43 -3 -44 -2 -75 132 c-41 72 -76 137 -78 145 -2 7 -7 13 -12 13 -4
0 -7 -65 -6 -146 l1 -145 -67 -3 -68 -2 0 228 0 228 94 0 94 0 79 -140z m1617
130 c56 -12 89 -41 100 -84 8 -30 6 -41 -10 -64 -12 -15 -30 -31 -42 -37 -26
-11 -29 -25 -6 -25 8 0 29 -13 45 -29 36 -37 41 -104 9 -143 -40 -52 -86 -61
-302 -62 l-198 -1 0 228 0 227 183 0 c100 0 200 -5 221 -10z m346 -215 l0
-225 -55 -2 c-30 -1 -62 -2 -70 -2 -12 -1 -15 36 -18 227 l-3 227 73 0 73 0 0
-225z m260 50 l0 -175 140 0 140 0 0 -52 0 -53 -210 0 -210 0 0 228 0 227 70
0 70 0 0 -175z m840 125 l0 -50 -165 0 -165 0 0 -40 0 -40 153 0 152 0 0 -46
-1 -46 -152 1 -152 2 0 -41 0 -40 175 0 175 0 0 -54 0 -53 -245 1 -245 1 0
227 0 228 235 0 235 0 0 -50z"/>
<path d="M7676 4545 c-55 -20 -86 -54 -93 -103 -11 -82 36 -138 127 -149 103
-12 180 44 180 133 0 92 -114 156 -214 119z"/>
<path d="M8270 4514 l0 -46 100 4 c56 2 105 9 111 15 6 6 9 23 5 36 -7 29 -36
37 -142 37 l-74 0 0 -46z"/>
<path d="M8270 4335 l0 -45 98 0 c103 0 142 13 142 49 0 34 -21 41 -132 41
l-108 0 0 -45z"/>
<path d="M11312 4144 c-21 -15 -22 -21 -22 -180 l0 -164 -82 -1 c-141 -2 -157
-14 -30 -23 l112 -8 0 -128 c0 -104 3 -132 16 -144 13 -13 43 -16 177 -16 215
0 207 -6 207 145 0 90 3 117 16 129 12 13 41 16 142 17 70 1 165 4 212 8 75 6
61 8 -125 14 -115 4 -217 11 -225 16 -12 7 -16 38 -18 166 -2 136 -5 160 -20
171 -27 21 -330 19 -360 -2z m343 -199 l0 -140 -167 -3 -168 -2 0 138 c0 76 3
142 7 146 4 3 79 5 167 4 l161 -3 0 -140z m-21 -185 c25 -9 26 -12 26 -106 l0
-97 -37 7 c-21 3 -98 6 -170 6 l-133 0 0 100 0 100 144 0 c80 0 156 -4 170
-10z m-107 -227 c3 -7 -10 -15 -31 -19 -40 -7 -66 -1 -66 16 0 6 4 9 9 5 5 -3
13 0 16 5 9 14 67 8 72 -7z"/>
<path d="M5422 3843 c-12 -2 -38 -19 -57 -37 -41 -39 -46 -80 -16 -117 17 -21
28 -24 90 -24 74 0 106 14 83 37 -9 9 -15 9 -24 0 -17 -17 -69 -15 -96 4 -31
22 -28 57 9 88 33 28 86 35 107 14 8 -8 15 -8 27 2 9 7 12 17 8 21 -10 10
-101 19 -131 12z"/>
<path d="M6697 3841 c-18 -6 -136 -158 -137 -173 0 -18 38 -6 60 17 18 19 34
25 67 25 37 0 45 -4 53 -25 7 -18 17 -25 35 -25 29 0 29 3 -9 120 -21 65 -33
76 -69 61z m33 -98 c0 -13 -51 -18 -63 -7 -3 3 4 21 16 40 l22 34 12 -28 c7
-15 12 -33 13 -39z"/>
<path d="M7185 3835 c-7 -21 -35 -158 -35 -166 0 -5 38 -9 85 -9 69 0 85 3 85
15 0 12 -13 15 -55 15 -42 0 -55 3 -55 15 0 10 11 15 33 16 l32 1 -30 7 c-47
10 -31 26 30 29 40 2 55 7 55 17 0 11 -13 15 -50 15 -38 0 -50 4 -50 15 0 12
14 15 65 15 36 0 65 4 65 9 0 13 -172 19 -175 6z"/>
<path d="M7472 3835 c-61 -27 -49 -70 29 -95 27 -9 39 -18 37 -29 -3 -13 -17
-16 -65 -16 -70 0 -89 -10 -49 -25 39 -15 102 -12 136 5 23 12 30 23 30 45 0
25 -6 31 -52 48 -71 27 -70 47 2 47 57 0 79 15 38 27 -38 10 -71 8 -106 -7z"/>
<path d="M7935 3805 l-42 -44 -22 39 c-16 30 -29 40 -47 40 -13 0 -24 -2 -24
-5 0 -2 14 -26 30 -52 26 -40 30 -54 25 -85 -6 -35 -5 -38 18 -38 20 0 25 6
31 38 4 27 20 51 61 91 30 29 55 55 55 57 0 2 -10 4 -22 4 -13 0 -39 -18 -63
-45z"/>
<path d="M8293 3837 c-22 -11 -133 -154 -133 -169 0 -19 49 -6 64 17 14 21 24
25 61 25 39 0 47 -3 55 -25 7 -18 17 -25 36 -25 19 0 25 4 20 15 -3 9 -13 44
-22 78 -26 100 -35 110 -81 84z m36 -99 c1 -9 -53 -11 -62 -2 -3 3 4 21 16 40
l22 33 12 -32 c6 -18 12 -35 12 -39z"/>
<path d="M8585 3845 c-5 -2 -22 -6 -37 -9 -37 -8 -78 -55 -78 -88 0 -15 10
-39 23 -54 33 -38 120 -46 157 -15 l25 22 -56 -7 c-49 -5 -60 -3 -78 15 -27
27 -27 55 1 81 30 27 64 35 94 21 28 -12 44 -7 44 13 0 17 -64 31 -95 21z"/>
<path d="M8835 3841 c-66 -16 -95 -45 -95 -96 0 -39 16 -62 51 -74 64 -22 139
-8 139 25 0 12 -5 14 -17 9 -67 -29 -123 -8 -123 47 0 37 51 71 95 64 60 -11
68 -11 72 1 7 19 -75 35 -122 24z"/>
<path d="M9332 3839 c-19 -6 -37 -20 -44 -35 -13 -29 3 -45 65 -64 27 -8 37
-16 35 -28 -3 -14 -15 -17 -63 -17 -69 0 -87 -14 -35 -28 80 -21 181 18 154
60 -12 19 -24 27 -78 48 -34 13 -37 17 -25 31 10 12 24 15 60 10 42 -6 73 5
52 17 -19 11 -91 15 -121 6z"/>
<path d="M9613 3840 c-48 -11 -78 -34 -93 -71 -25 -59 24 -109 108 -109 84 0
142 43 142 105 0 42 -17 61 -65 74 -44 12 -47 12 -92 1z m85 -36 c50 -35 8
-114 -60 -114 -46 0 -68 17 -68 51 0 62 76 100 128 63z"/>
<path d="M10363 3839 c-71 -21 -108 -113 -62 -155 32 -29 143 -27 186 4 34 24
51 72 39 110 -12 36 -103 60 -163 41z m97 -39 c27 -27 25 -56 -5 -85 -30 -31
-86 -34 -115 -5 -16 16 -18 24 -9 50 21 58 89 80 129 40z"/>
<path d="M10638 3834 c-35 -15 -52 -42 -39 -61 3 -5 28 -20 55 -33 27 -14 47
-29 45 -35 -2 -5 -32 -9 -66 -8 -45 1 -63 -3 -63 -12 0 -24 110 -34 154 -13
30 13 42 43 26 63 -7 8 -30 20 -52 27 -76 23 -58 63 25 54 55 -6 68 17 16 28
-44 9 -59 7 -101 -10z"/>
<path d="M5607 3759 c-9 -45 -14 -85 -11 -90 3 -5 41 -9 85 -9 64 0 79 3 79
15 0 12 -13 15 -60 15 -62 0 -78 13 -37 30 18 7 19 9 4 9 -10 1 -17 7 -15 14
3 7 26 13 56 15 37 2 52 7 52 18 0 10 -13 14 -51 14 -71 0 -61 24 12 28 91 5
82 22 -13 22 l-85 0 -16 -81z"/>
<path d="M5848 3758 c-10 -44 -15 -85 -12 -90 3 -4 40 -8 83 -8 71 0 79 2 84
21 5 19 2 20 -56 18 -35 -1 -61 2 -60 8 1 5 8 37 16 71 l14 62 -26 0 c-25 0
-27 -4 -43 -82z"/>
<path d="M6086 3809 c-11 -58 -7 -116 11 -130 9 -8 40 -14 74 -14 74 0 92 17
119 108 l19 68 -27 -3 c-18 -2 -28 -10 -30 -23 -16 -93 -37 -125 -82 -125 -39
0 -50 24 -40 80 13 66 12 70 -14 70 -18 0 -25 -7 -30 -31z"/>
<path d="M6391 3778 c-6 -35 -14 -75 -18 -90 l-5 -28 82 0 c72 0 81 2 78 18
-3 14 -13 16 -50 14 -25 -2 -49 1 -52 6 -3 5 1 35 9 68 18 77 19 74 -8 74 -21
0 -25 -7 -36 -62z"/>
<path d="M6904 3813 c-3 -16 -12 -53 -20 -84 -18 -73 -19 -71 14 -67 21 2 28
9 30 31 5 39 50 38 80 -3 19 -25 62 -42 62 -24 0 10 -23 49 -34 57 -8 6 -7 10
3 14 22 9 51 42 51 57 0 33 -30 46 -106 46 -72 0 -74 -1 -80 -27z m110 1 c9
-3 16 -16 16 -29 0 -25 -17 -35 -62 -35 -27 0 -30 3 -24 23 3 12 6 28 6 35 0
13 37 16 64 6z"/>
<path d="M9024 3750 l-21 -90 84 0 c67 0 83 3 83 15 0 12 -13 15 -55 15 -42 0
-55 3 -55 15 0 9 10 16 28 16 23 2 24 2 5 6 -13 2 -23 11 -23 19 0 10 14 14
55 14 42 0 55 3 55 15 0 11 -12 15 -50 15 -38 0 -50 4 -50 15 0 12 14 15 65
15 37 0 65 4 65 10 0 6 -34 10 -83 10 l-83 0 -20 -90z"/>
<path d="M9851 3755 c-11 -46 -21 -87 -21 -90 0 -3 11 -5 24 -5 19 0 26 7 31
30 5 25 12 30 35 30 21 0 33 -8 47 -30 13 -22 25 -30 45 -30 33 0 34 4 8 32
-26 28 -25 45 1 53 11 4 25 18 31 31 9 19 8 28 -7 44 -15 17 -31 20 -95 20
l-78 0 -21 -85z m152 46 c16 -16 -30 -51 -68 -51 -38 0 -40 5 -25 46 9 24 14
26 47 21 20 -4 40 -10 46 -16z"/>
<path d="M10134 3750 l-21 -90 27 0 c23 0 28 5 33 33 4 17 13 58 20 90 l14 57
-26 0 c-25 0 -27 -5 -47 -90z"/>
</g>
</svg>
